<svg width="26" height="25" viewBox="0 0 26 25" fill="none" xmlns="http://www.w3.org/2000/svg">
<path d="M4.84553 6.12066H22.4297C22.786 6.12068 23.1383 6.19535 23.464 6.33987C23.7897 6.48439 24.0815 6.69554 24.3205 6.95972C24.5596 7.22391 24.7407 7.53525 24.8521 7.8737C24.9634 8.21214 25.0027 8.57016 24.9672 8.9247L24.2021 16.5755C24.1392 17.2048 23.8447 17.7883 23.3758 18.2126C22.9069 18.637 22.297 18.872 21.6646 18.8721H9.48703C8.89724 18.8723 8.32561 18.6681 7.86945 18.2942C7.41329 17.9204 7.10081 17.4 6.98521 16.8216L4.84553 6.12066Z" stroke="white" stroke-width="2" stroke-linejoin="round"/>
<path d="M4.84553 6.12066L3.81266 1.98539C3.74359 1.70965 3.58435 1.46489 3.36025 1.29C3.13616 1.11511 2.86004 1.02012 2.57578 1.02011H1.02011M8.67094 23.9726H11.2212M18.8721 23.9726H21.4223" stroke="white" stroke-width="2" stroke-linecap="round" stroke-linejoin="round"/>
</svg>
