<svg width="23" height="27" viewBox="0 0 23 27" fill="none" xmlns="http://www.w3.org/2000/svg">
<path d="M18.0064 10.4266C16.8324 11.2613 15.3876 11.6245 13.9585 11.4442C12.5293 11.2638 11.2201 10.5532 10.2902 9.45307C9.36035 8.35295 8.8777 6.94362 8.93795 5.50441C8.9982 4.0652 9.59693 2.70115 10.6155 1.68258C11.6341 0.664013 12.9981 0.0652762 14.4373 0.00503065C15.8765 -0.0552149 17.2859 0.427427 18.386 1.35731C19.4861 2.28718 20.1968 3.59643 20.3771 5.02557C20.5574 6.45471 20.1942 7.89944 19.3595 9.07343L22.6953 12.4079C22.7893 12.4955 22.8648 12.6012 22.9171 12.7187C22.9695 12.8361 22.9976 12.9629 22.9999 13.0915C23.0021 13.22 22.9785 13.3477 22.9303 13.467C22.8822 13.5862 22.8105 13.6945 22.7196 13.7854C22.6287 13.8763 22.5204 13.948 22.4011 13.9961C22.2819 14.0443 22.1542 14.0679 22.0257 14.0657C21.8971 14.0634 21.7703 14.0353 21.6529 13.9829C21.5354 13.9306 21.4297 13.8551 21.3421 13.7611L18.0064 10.4266ZM18.5081 5.74408C18.5081 4.72835 18.1046 3.75424 17.3863 3.03601C16.6681 2.31779 15.694 1.9143 14.6783 1.9143C13.6626 1.9143 12.6884 2.31779 11.9702 3.03601C11.252 3.75424 10.8485 4.72835 10.8485 5.74408C10.8485 6.7598 11.252 7.73392 11.9702 8.45214C12.6884 9.17036 13.6626 9.57386 14.6783 9.57386C15.694 9.57386 16.6681 9.17036 17.3863 8.45214C18.1046 7.73392 18.5081 6.7598 18.5081 5.74408ZM17.8698 12.0964V25.844C17.8698 26.0203 17.8212 26.1931 17.7293 26.3434C17.6375 26.4938 17.5059 26.6159 17.3491 26.6963C17.1923 26.7767 17.0163 26.8122 16.8406 26.799C16.6649 26.7858 16.4962 26.7244 16.3532 26.6215L8.93615 21.284L1.51659 26.6202C1.37364 26.7231 1.20509 26.7845 1.02948 26.7977C0.853874 26.811 0.678014 26.7755 0.521246 26.6953C0.364478 26.6151 0.232875 26.4932 0.140912 26.343C0.0489501 26.1928 0.000191351 26.0201 0 25.844V6.70024C0 5.59988 0.437118 4.54458 1.21519 3.76651C1.99327 2.98843 3.04856 2.55132 4.14893 2.55132H8.42296C8.11913 3.14621 7.89701 3.78961 7.7719 4.46621H4.14893C3.55642 4.46621 2.98819 4.70158 2.56923 5.12054C2.15026 5.5395 1.91489 6.10774 1.91489 6.70024V23.9751L8.37573 19.3283C8.53862 19.2111 8.73421 19.1481 8.93488 19.1481C9.13554 19.1481 9.33114 19.2111 9.49403 19.3283L15.9549 23.9751V12.6504C16.5978 12.5323 17.2209 12.3243 17.8059 12.0326L17.8698 12.0964V12.0964Z" fill="white"/>
</svg>
