<svg width="25" height="25" viewBox="0 0 25 25" fill="none" xmlns="http://www.w3.org/2000/svg">
<path d="M21.875 10.1562H20.3125V8.59375C20.3125 6.40625 18.5937 4.6875 16.4062 4.6875H14.0625V3.125H16.4062C19.4531 3.125 21.875 5.54687 21.875 8.59375V10.1562ZM17.1875 15.625H19.5312V17.1875H17.1875V15.625ZM17.1875 18.75H19.5312V20.3125H17.1875V18.75Z" fill="white"/>
<path d="M21.0938 23.4375H17.1875V21.875H21.0938V14.0625H15.625V21.0938C15.625 22.4219 14.6094 23.4375 13.2812 23.4375C11.9531 23.4375 10.9375 22.4219 10.9375 21.0938V18.75H12.5V21.0938C12.5 21.5625 12.8125 21.875 13.2812 21.875C13.75 21.875 14.0625 21.5625 14.0625 21.0938V12.5H22.6562V21.875C22.6562 22.7344 21.9531 23.4375 21.0938 23.4375ZM9.375 21.875H8.59375C5.54687 21.875 3.125 19.4531 3.125 16.4062V13.2812H4.6875V16.4062C4.6875 18.5937 6.40625 20.3125 8.59375 20.3125H9.375V21.875ZM8.59375 7.8125V9.375H10.9375C11.7969 9.375 12.5 8.67188 12.5 7.8125V3.125C12.5 2.26562 11.7969 1.5625 10.9375 1.5625H3.125C2.26562 1.5625 1.5625 2.26562 1.5625 3.125V7.8125C1.5625 8.67188 2.26562 9.375 3.125 9.375H5L6.32813 11.7188L7.65625 10.9375L5.85938 7.8125H3.125V3.125H10.9375V7.8125H8.59375Z" fill="white"/>
</svg>
